<mxfile host="app.diagrams.net" agent="Mozilla/5.0 (Windows NT 10.0; Win64; x64) AppleWebKit/537.36 (KHTML, like Gecko) Chrome/135.0.0.0 Safari/537.36" version="26.2.14">
  <diagram id="pK2pRlAEL5c_GspzuX14" name="Page-1">
    <mxGraphModel dx="1068" dy="548" grid="1" gridSize="10" guides="1" tooltips="1" connect="1" arrows="1" fold="1" page="1" pageScale="1" pageWidth="850" pageHeight="1100" math="0" shadow="0">
      <root>
        <mxCell id="0" />
        <mxCell id="1" parent="0" />
        <mxCell id="67Ovl9v8_DXHvx7QXDaa-1" value=":GameController" style="rounded=0;whiteSpace=wrap;html=1;" vertex="1" parent="1">
          <mxGeometry x="30" y="130" width="120" height="40" as="geometry" />
        </mxCell>
        <mxCell id="67Ovl9v8_DXHvx7QXDaa-2" value="`" style="endArrow=none;dashed=1;html=1;rounded=0;entryX=0.5;entryY=1;entryDx=0;entryDy=0;strokeColor=#747474;" edge="1" parent="1" target="67Ovl9v8_DXHvx7QXDaa-1" source="67Ovl9v8_DXHvx7QXDaa-3">
          <mxGeometry x="-0.0986" width="50" height="50" relative="1" as="geometry">
            <mxPoint x="90" y="800" as="sourcePoint" />
            <mxPoint x="90.5" y="274" as="targetPoint" />
            <Array as="points" />
            <mxPoint as="offset" />
          </mxGeometry>
        </mxCell>
        <mxCell id="67Ovl9v8_DXHvx7QXDaa-4" value="&lt;span style=&quot;color: rgb(0, 0, 0); font-size: 12px;&quot;&gt;Scenario specific to the start of a player&#39;s turn, where their worker is on top of a level 2 building, with an adjacent building that is level 3&lt;/span&gt;" style="shape=note;strokeWidth=2;fontSize=14;size=23;whiteSpace=wrap;html=1;fillColor=#fff2cc;strokeColor=#d6b656;fontColor=#666600;align=left;" vertex="1" parent="1">
          <mxGeometry x="20" y="10" width="150" height="100" as="geometry" />
        </mxCell>
        <mxCell id="67Ovl9v8_DXHvx7QXDaa-5" value="" style="group" vertex="1" connectable="0" parent="1">
          <mxGeometry x="270" y="219" width="180" height="20" as="geometry" />
        </mxCell>
        <mxCell id="67Ovl9v8_DXHvx7QXDaa-6" value="handleSelectWorker(clickedSpace)" style="text;html=1;align=center;verticalAlign=middle;whiteSpace=wrap;rounded=0;" vertex="1" parent="67Ovl9v8_DXHvx7QXDaa-5">
          <mxGeometry x="-24" y="3" width="204" height="10" as="geometry" />
        </mxCell>
        <mxCell id="67Ovl9v8_DXHvx7QXDaa-8" value="&lt;span style=&quot;color: rgb(0, 0, 0); font-size: 12px;&quot;&gt;This sequence diagram illustrates the winning of the game&lt;/span&gt;" style="shape=note;strokeWidth=2;fontSize=14;size=20;whiteSpace=wrap;html=1;fillColor=#fff2cc;strokeColor=#d6b656;fontColor=#666600;align=left;" vertex="1" parent="1">
          <mxGeometry x="190" y="15" width="100" height="90" as="geometry" />
        </mxCell>
        <mxCell id="67Ovl9v8_DXHvx7QXDaa-9" value="&lt;span style=&quot;color: rgb(0, 0, 0); font-size: 12px;&quot;&gt;clickedSpace contains the player&#39;s worker on a level 2 building&lt;/span&gt;" style="shape=note;strokeWidth=2;fontSize=14;size=20;whiteSpace=wrap;html=1;fillColor=#fff2cc;strokeColor=#d6b656;fontColor=#666600;align=left;" vertex="1" parent="1">
          <mxGeometry x="325" y="130" width="100" height="70" as="geometry" />
        </mxCell>
        <mxCell id="67Ovl9v8_DXHvx7QXDaa-12" value="worker:Worker" style="rounded=0;whiteSpace=wrap;html=1;" vertex="1" parent="1">
          <mxGeometry x="175" y="140" width="120" height="40" as="geometry" />
        </mxCell>
        <mxCell id="67Ovl9v8_DXHvx7QXDaa-13" value="" style="endArrow=none;dashed=1;html=1;rounded=0;strokeColor=#747474;" edge="1" parent="1" source="67Ovl9v8_DXHvx7QXDaa-14">
          <mxGeometry x="-0.0986" width="50" height="50" relative="1" as="geometry">
            <mxPoint x="235" y="520" as="sourcePoint" />
            <mxPoint x="235" y="181" as="targetPoint" />
            <Array as="points" />
            <mxPoint as="offset" />
          </mxGeometry>
        </mxCell>
        <mxCell id="67Ovl9v8_DXHvx7QXDaa-15" value="" style="endArrow=none;dashed=1;html=1;rounded=0;strokeColor=#747474;exitX=0.565;exitY=0.366;exitDx=0;exitDy=0;exitPerimeter=0;" edge="1" parent="1" source="67Ovl9v8_DXHvx7QXDaa-94" target="67Ovl9v8_DXHvx7QXDaa-14">
          <mxGeometry x="-0.0986" width="50" height="50" relative="1" as="geometry">
            <mxPoint x="235" y="520" as="sourcePoint" />
            <mxPoint x="230" y="181" as="targetPoint" />
            <Array as="points" />
            <mxPoint as="offset" />
          </mxGeometry>
        </mxCell>
        <mxCell id="67Ovl9v8_DXHvx7QXDaa-53" value="getMoveActions(board)" style="text;whiteSpace=wrap;html=1;align=center;" vertex="1" parent="1">
          <mxGeometry x="104" y="190" width="110" height="40" as="geometry" />
        </mxCell>
        <mxCell id="67Ovl9v8_DXHvx7QXDaa-54" style="edgeStyle=orthogonalEdgeStyle;rounded=0;orthogonalLoop=1;jettySize=auto;html=1;" edge="1" parent="1">
          <mxGeometry relative="1" as="geometry">
            <mxPoint x="101.03" y="216" as="sourcePoint" />
            <mxPoint x="230" y="216" as="targetPoint" />
            <Array as="points">
              <mxPoint x="95.03" y="216" />
            </Array>
          </mxGeometry>
        </mxCell>
        <mxCell id="67Ovl9v8_DXHvx7QXDaa-55" value="" style="endArrow=classic;html=1;rounded=0;" edge="1" parent="1">
          <mxGeometry width="50" height="50" relative="1" as="geometry">
            <mxPoint x="95" y="190" as="sourcePoint" />
            <mxPoint x="96" y="260" as="targetPoint" />
            <Array as="points">
              <mxPoint x="250" y="190" />
              <mxPoint x="250" y="260" />
            </Array>
          </mxGeometry>
        </mxCell>
        <mxCell id="67Ovl9v8_DXHvx7QXDaa-57" value="" style="edgeStyle=none;orthogonalLoop=1;jettySize=auto;html=1;rounded=0;entryX=0.966;entryY=0.067;entryDx=0;entryDy=0;entryPerimeter=0;dashed=1;endArrow=open;endFill=0;exitX=-0.269;exitY=0.215;exitDx=0;exitDy=0;exitPerimeter=0;" edge="1" parent="1">
          <mxGeometry width="100" relative="1" as="geometry">
            <mxPoint x="227.31000000000006" y="244.69999999999993" as="sourcePoint" />
            <mxPoint x="95.0000000000001" y="245.99999999999991" as="targetPoint" />
            <Array as="points" />
          </mxGeometry>
        </mxCell>
        <mxCell id="67Ovl9v8_DXHvx7QXDaa-58" value="possibleMoves" style="text;whiteSpace=wrap;html=1;align=center;" vertex="1" parent="1">
          <mxGeometry x="104" y="223" width="110" height="40" as="geometry" />
        </mxCell>
        <mxCell id="67Ovl9v8_DXHvx7QXDaa-60" value="" style="group" vertex="1" connectable="0" parent="1">
          <mxGeometry x="380" y="350" width="180" height="20" as="geometry" />
        </mxCell>
        <mxCell id="67Ovl9v8_DXHvx7QXDaa-61" value="handleMoveWorker(clickedSpace)" style="text;html=1;align=center;verticalAlign=middle;whiteSpace=wrap;rounded=0;" vertex="1" parent="67Ovl9v8_DXHvx7QXDaa-60">
          <mxGeometry x="-24" y="3" width="204" height="10" as="geometry" />
        </mxCell>
        <mxCell id="67Ovl9v8_DXHvx7QXDaa-62" value="" style="endArrow=classic;html=1;rounded=0;entryX=1;entryY=1;entryDx=0;entryDy=0;" edge="1" parent="1" target="67Ovl9v8_DXHvx7QXDaa-3">
          <mxGeometry width="50" height="50" relative="1" as="geometry">
            <mxPoint x="95" y="280" as="sourcePoint" />
            <mxPoint x="96" y="700" as="targetPoint" />
            <Array as="points">
              <mxPoint x="360" y="280" />
              <mxPoint x="360" y="460" />
              <mxPoint x="230" y="460" />
            </Array>
          </mxGeometry>
        </mxCell>
        <mxCell id="67Ovl9v8_DXHvx7QXDaa-63" value="&lt;b&gt;loop&lt;/b&gt;" style="shape=umlFrame;whiteSpace=wrap;html=1;pointerEvents=0;recursiveResize=0;container=1;collapsible=0;width=40;height=20;fillColor=#B3B3B3;" vertex="1" parent="1">
          <mxGeometry x="28" y="290" width="312" height="140" as="geometry" />
        </mxCell>
        <mxCell id="67Ovl9v8_DXHvx7QXDaa-65" value="&lt;b&gt;opt&lt;/b&gt;" style="shape=umlFrame;whiteSpace=wrap;html=1;pointerEvents=0;recursiveResize=0;container=0;collapsible=0;width=40;height=20;fillColor=#B3B3B3;" vertex="1" parent="67Ovl9v8_DXHvx7QXDaa-63">
          <mxGeometry x="6" y="26" width="294" height="104" as="geometry" />
        </mxCell>
        <mxCell id="67Ovl9v8_DXHvx7QXDaa-66" value="&lt;span style=&quot;font-size: 8px;&quot;&gt;&lt;b&gt;[move is the selected move&amp;nbsp; and&amp;nbsp; is&amp;nbsp; valid ]&lt;/b&gt;&lt;/span&gt;" style="text;html=1;align=center;verticalAlign=middle;resizable=0;points=[];autosize=1;strokeColor=none;fillColor=none;" vertex="1" parent="67Ovl9v8_DXHvx7QXDaa-63">
          <mxGeometry x="60" y="20" width="180" height="30" as="geometry" />
        </mxCell>
        <mxCell id="67Ovl9v8_DXHvx7QXDaa-70" value="&lt;b&gt;opt&lt;/b&gt;" style="shape=umlFrame;whiteSpace=wrap;html=1;pointerEvents=0;recursiveResize=0;container=0;collapsible=0;width=40;height=20;fillColor=#B3B3B3;" vertex="1" parent="67Ovl9v8_DXHvx7QXDaa-63">
          <mxGeometry x="15" y="50" width="275" height="70" as="geometry" />
        </mxCell>
        <mxCell id="67Ovl9v8_DXHvx7QXDaa-64" value="&lt;font style=&quot;font-size: 8px;&quot;&gt;&lt;b&gt;[for each move in possibleMoves]&lt;/b&gt;&lt;/font&gt;" style="text;html=1;align=center;verticalAlign=middle;resizable=0;points=[];autosize=1;strokeColor=none;fillColor=none;" vertex="1" parent="67Ovl9v8_DXHvx7QXDaa-63">
          <mxGeometry x="60" y="-10" width="150" height="30" as="geometry" />
        </mxCell>
        <mxCell id="67Ovl9v8_DXHvx7QXDaa-87" value="&lt;span style=&quot;font-size: 8px;&quot;&gt;&lt;b&gt;[move is a win condition]&lt;/b&gt;&lt;/span&gt;" style="text;html=1;align=center;verticalAlign=middle;resizable=0;points=[];autosize=1;strokeColor=none;fillColor=none;" vertex="1" parent="67Ovl9v8_DXHvx7QXDaa-63">
          <mxGeometry x="60" y="44" width="120" height="30" as="geometry" />
        </mxCell>
        <mxCell id="67Ovl9v8_DXHvx7QXDaa-88" value="" style="group" vertex="1" connectable="0" parent="67Ovl9v8_DXHvx7QXDaa-63">
          <mxGeometry x="122" y="80" width="180" height="20" as="geometry" />
        </mxCell>
        <mxCell id="67Ovl9v8_DXHvx7QXDaa-89" value="showVictoryDialog(currentPlayer)" style="text;html=1;align=center;verticalAlign=middle;whiteSpace=wrap;rounded=0;" vertex="1" parent="67Ovl9v8_DXHvx7QXDaa-88">
          <mxGeometry x="-24" y="3" width="204" height="10" as="geometry" />
        </mxCell>
        <mxCell id="67Ovl9v8_DXHvx7QXDaa-90" value="" style="endArrow=classic;html=1;rounded=0;edgeStyle=orthogonalEdgeStyle;exitX=0.976;exitY=0.372;exitDx=0;exitDy=0;exitPerimeter=0;" edge="1" parent="67Ovl9v8_DXHvx7QXDaa-63">
          <mxGeometry width="50" height="50" relative="1" as="geometry">
            <mxPoint x="65.99999999999999" y="74.51999999999998" as="sourcePoint" />
            <mxPoint x="67.24" y="99" as="targetPoint" />
            <Array as="points">
              <mxPoint x="67" y="75" />
              <mxPoint x="111" y="74" />
              <mxPoint x="111" y="99" />
            </Array>
          </mxGeometry>
        </mxCell>
        <mxCell id="67Ovl9v8_DXHvx7QXDaa-14" value="" style="rounded=0;whiteSpace=wrap;html=1;" vertex="1" parent="1">
          <mxGeometry x="230" y="210" width="10" height="40" as="geometry" />
        </mxCell>
        <mxCell id="67Ovl9v8_DXHvx7QXDaa-92" value="" style="endArrow=none;dashed=1;html=1;rounded=0;entryX=0.5;entryY=1;entryDx=0;entryDy=0;strokeColor=#747474;exitX=0.506;exitY=0.646;exitDx=0;exitDy=0;exitPerimeter=0;" edge="1" parent="1" source="67Ovl9v8_DXHvx7QXDaa-93" target="67Ovl9v8_DXHvx7QXDaa-3">
          <mxGeometry x="-0.0986" width="50" height="50" relative="1" as="geometry">
            <mxPoint x="90" y="800" as="sourcePoint" />
            <mxPoint x="90" y="170" as="targetPoint" />
            <Array as="points" />
            <mxPoint as="offset" />
          </mxGeometry>
        </mxCell>
        <mxCell id="67Ovl9v8_DXHvx7QXDaa-3" value="" style="rounded=0;whiteSpace=wrap;html=1;" vertex="1" parent="1">
          <mxGeometry x="85" y="190" width="10" height="270" as="geometry" />
        </mxCell>
        <mxCell id="67Ovl9v8_DXHvx7QXDaa-93" value="" style="shape=umlDestroy;whiteSpace=wrap;html=1;strokeWidth=1;targetShapes=umlLifeline;" vertex="1" parent="1">
          <mxGeometry x="79" y="500" width="22" height="23" as="geometry" />
        </mxCell>
        <mxCell id="67Ovl9v8_DXHvx7QXDaa-94" value="" style="shape=umlDestroy;whiteSpace=wrap;html=1;strokeWidth=1;targetShapes=umlLifeline;" vertex="1" parent="1">
          <mxGeometry x="224" y="503" width="22" height="23" as="geometry" />
        </mxCell>
        <mxCell id="67Ovl9v8_DXHvx7QXDaa-98" value="&lt;span style=&quot;color: rgb(0, 0, 0); font-size: 12px;&quot;&gt;possibleMoves contains all (invalid and valid) moves from this space, for this player&#39;s selected worker&lt;/span&gt;" style="shape=note;strokeWidth=2;fontSize=14;size=20;whiteSpace=wrap;html=1;fillColor=#fff2cc;strokeColor=#d6b656;fontColor=#666600;align=left;" vertex="1" parent="1">
          <mxGeometry x="450" y="110" width="150" height="104.5" as="geometry" />
        </mxCell>
        <mxCell id="67Ovl9v8_DXHvx7QXDaa-99" value="&lt;font color=&quot;#000000&quot;&gt;&lt;span style=&quot;font-size: 12px;&quot;&gt;A move in possibleMoves is set as a win condition, if the final height is &amp;gt;=3&amp;nbsp;&lt;/span&gt;&lt;/font&gt;&lt;div&gt;&lt;font color=&quot;#000000&quot;&gt;&lt;span style=&quot;font-size: 12px;&quot;&gt;Please refer to sequence diagram 2.&lt;/span&gt;&lt;/font&gt;&lt;/div&gt;" style="shape=note;strokeWidth=2;fontSize=14;size=20;whiteSpace=wrap;html=1;fillColor=#fff2cc;strokeColor=#d6b656;fontColor=#666600;align=left;" vertex="1" parent="1">
          <mxGeometry x="450" y="230" width="140" height="114.5" as="geometry" />
        </mxCell>
      </root>
    </mxGraphModel>
  </diagram>
</mxfile>
